<?xml version="1.0" encoding="UTF-8"?>
<svg version="1.1" viewBox="0 0 1000 280" xmlns="http://www.w3.org/2000/svg">
<g transform="translate(-.60606 -.50804)">
<svg width="1e3" height="280" data-background-color="#ffffff" viewBox="0 0 396 111" xmlns="http://www.w3.org/2000/svg" xmlns:xlink="http://www.w3.org/1999/xlink">
<g transform="translate(.24 .2014)">
<svg width="395.52" height="110.6" viewBox="0 0 395.5199999999999 110.59719133673609">
<svg width="395.52" height="110.6" viewBox="0 0 395.5199999999999 110.59719133673609">
<svg width="395.52" height="110.6" viewBox="0 0 395.5199999999999 110.59719133673609">
<svg width="395.52" height="110.6" viewBox="0 0 395.5199999999999 110.59719133673609">
<svg width="395.52" height="110.6" viewBox="0 0 395.5199999999999 110.59719133673609">
<g>
<svg width="395.52" height="110.6" data-palette-color="#bb84e8" viewBox="2.759999990463257 -37.5 176.9600067138672 49.48999786376953">
<path class="wordmark-text-0" d="m14.28-10.11 3.84-14.74q0.07-0.27 0.41-0.35 1.98-0.43 4.05-0.9 2.08-0.46 3.98-1.15 0.34 0 0.34 0.25l2.49 16.65 4.67-16.65q0.1-0.25 0.36-0.25 0.08 0 0.1 0.02 0.03 0.01 0.1 0.01 1.83 0.71 3.76 1.16t3.83 0.86q0.47 0.1 0.47 0.54 0 0.32-0.3 0.98l-7.86 21.78q-0.19 0.41-0.34 0.69t-0.29 0.44q-0.15 0.16-0.32 0.25-0.17 0.08-0.42 0.13-1.85 0.39-3.76 0.85-1.9 0.47-3.95 1.18-0.05 0-0.07 0.01-0.03 0.01-0.05 0.01h-0.17q-0.13 0-0.2-0.09-0.07-0.08-0.1-0.15-0.27-1.05-0.61-2.62-0.34-1.56-0.73-3.46-0.39-1.91-0.83-4.08t-0.9-4.47l-3.1 10.92q-0.13 0.43-0.26 0.72-0.13 0.28-0.3 0.43-0.18 0.16-0.37 0.24-0.2 0.07-0.44 0.12-1.86 0.36-3.76 0.84t-3.96 1.19q-0.04 0-0.07 0.01-0.02 0.01-0.05 0.01h-0.17q-0.12 0-0.21-0.09-0.08-0.08-0.08-0.15-0.34-1.08-0.78-2.73-0.44-1.64-0.94-3.68t-1.04-4.36-1.1-4.71q-0.56-2.4-1.11-4.75-0.55-2.36-1.06-4.48-0.17-0.39-0.2-0.65-0.02-0.25-0.02-0.43 0-0.34 0.39-0.44 1.9-0.41 3.95-0.86 2.06-0.45 3.89-1.16 0.07-0.03 0.22-0.03 0.31 0 0.34 0.25l2.73 16.89zm42.94 11.38q-3.44 0-6.04-1.12-2.6-1.13-4.36-2.99-1.75-1.87-2.63-4.3t-0.88-5.04 0.85-4.97q0.86-2.36 2.4-4.22 1.53-1.87 3.68-3.13t4.74-1.7q0.39-0.02 0.39-0.17 0-0.27-0.06-0.5t-0.06-0.4q0-0.27 0.09-0.37 0.1-0.09 0.22-0.09 4.67 0 7.94 1.06t5.32 2.89 2.98 4.32 0.93 5.35q0 3.64-1.22 6.49-1.22 2.86-3.34 4.84-2.11 1.97-4.93 3.01t-6.02 1.04zm-4.51-13.72q0 1.32 0.28 2.61 0.28 1.3 0.93 2.34 0.64 1.05 1.69 1.7t2.62 0.65q1.12-0.05 1.96-0.5t1.45-1.17 1.02-1.63q0.4-0.9 0.63-1.86 0.23-0.97 0.33-1.9 0.1-0.92 0.1-1.68 0-1.27-0.38-2.49t-1.11-2.15-1.82-1.5q-1.09-0.58-2.5-0.58-1.47 0-2.47 0.87t-1.6 2.14-0.86 2.67q-0.27 1.4-0.27 2.48zm36.57 13.72q-3.45 0-6.05-1.12-2.6-1.13-4.35-2.99-1.76-1.87-2.64-4.3t-0.88-5.04 0.86-4.97q0.85-2.36 2.39-4.22 1.54-1.87 3.68-3.13 2.15-1.26 4.74-1.7 0.39-0.02 0.39-0.17 0-0.27-0.06-0.5t-0.06-0.4q0-0.27 0.1-0.37 0.1-0.09 0.22-0.09 4.66 0 7.93 1.06t5.32 2.89 2.98 4.32 0.93 5.35q0 3.64-1.22 6.49-1.22 2.86-3.33 4.84-2.11 1.97-4.93 3.01t-6.02 1.04zm-4.52-13.72q0 1.32 0.28 2.61 0.28 1.3 0.93 2.34 0.65 1.05 1.7 1.7t2.61 0.65q1.12-0.05 1.96-0.5 0.85-0.45 1.46-1.17t1.01-1.63q0.4-0.9 0.63-1.86 0.24-0.97 0.33-1.9 0.1-0.92 0.1-1.68 0-1.27-0.38-2.49t-1.11-2.15-1.82-1.5q-1.08-0.58-2.5-0.58-1.46 0-2.46 0.87-1.01 0.87-1.6 2.14-0.6 1.27-0.87 2.67t-0.27 2.48zm40.94-4.71 0.02-0.37q-0.24-0.56-0.67-1.15-0.42-0.58-0.99-1.07-0.56-0.49-1.22-0.79-0.66-0.31-1.39-0.31-1 0-1.88 0.83t-1.54 2.21q-0.65 1.38-1.03 3.15t-0.38 3.67q0 1.18 0.21 2.21 0.2 1.04 0.64 1.82t1.14 1.25q0.69 0.46 1.67 0.46 1.47 0 2.69-0.91 1.22-0.92 2.07-2.38 0.03-0.52 0.07-1.23 0.05-0.7 0.13-1.72 0.07-1.01 0.18-2.39t0.28-3.28zm9.35-10.04q0.29-0.07 0.54-0.07 0.76 0 0.76 0.95 0 0.12 0 0.23t-0.03 0.26l-3.15 33.84q-0.02 0.07-0.02 0.27 0 0.09 0.01 0.17 0.01 0.07 0.01 0.12 0 0.22-0.16 0.35-0.16 0.14-0.82 0.31l-6.47 2.37q-0.26 0.07-0.7 0.23t-0.86 0.16q-0.34 0-0.61-0.15t-0.27-0.54q0-0.14 0.03-0.22 0.02-0.09 0.07-0.67 0.05-0.57 0.12-1.44 0.08-0.86 0.17-1.95 0.1-1.09 0.19-2.22 0.08-1.14 0.18-2.22 0.1-1.09 0.17-1.96 0.07-0.86 0.12-1.44 0.05-0.57 0.08-0.67-1.76 1.17-3.57 1.97-1.8 0.79-3.64 0.79-2.51 0-4.34-1.03-1.83-1.02-3.03-2.74-1.19-1.72-1.77-3.96-0.57-2.23-0.57-4.65 0-1.93 0.35-3.87 0.36-1.94 1.05-3.73 0.7-1.8 1.72-3.36 1.03-1.56 2.37-2.71t2.98-1.81 3.56-0.66q2.15 0 3.91 0.86 1.76 0.85 3.25 2.24 0.05-0.43 0.07-0.69t0.12-0.4q0.1-0.15 0.33-0.22 0.23-0.08 0.67-0.17 0.27-0.05 0.98-0.21t1.68-0.38q0.98-0.22 2.15-0.46 1.17-0.25 2.37-0.52zm6.35 6.55q0.29-3.35 0.47-6.62 0.19-3.27 0.41-6.71 0.04-0.81 0.15-1.12 0.11-0.3 0.55-0.4 2.27-0.41 4.56-0.84 2.28-0.43 4.57-1.14 0.08-0.02 0.22-0.02 0.27 0 0.27 0.24l-3.17 34.87v0.41q0 0.22-0.17 0.36-0.17 0.13-0.81 0.3l-6.39 2.35q-0.27 0.12-0.71 0.25-0.44 0.14-0.86 0.14-0.34 0-0.6-0.17-0.25-0.18-0.25-0.59v-0.15q0.19-2.46 0.38-4.82 0.18-2.36 0.39-4.87t0.45-5.32 0.54-6.15zm28.05-6.6q2.31 0 4.21 0.87 1.89 0.87 3.24 2.25 1.36 1.38 2.09 3.09 0.73 1.7 0.73 3.41 0 1.52-0.92 3.04-0.93 1.53-2.6 2.75-1.68 1.22-4.02 1.98-2.34 0.75-5.15 0.75-1.47 0-3.08-0.29 0.1 1.05 0.61 1.81 0.52 0.75 1.3 1.24t1.77 0.72 2.04 0.23q1.17 0 2.25-0.2 1.09-0.21 2.09-0.55t1.93-0.76q0.93-0.41 1.76-0.83 0.22-0.05 0.38-0.08 0.15-0.04 0.3-0.04 0 0-0.01 0.39t-0.01 1.1-0.02 1.71q-0.01 1-0.03 2.22 0.07 0.12 0.1 0.24 0.02 0.12 0.02 0.2 0 0.29-0.54 0.63-0.53 0.34-1.4 0.71t-1.98 0.71-2.26 0.62q-1.14 0.28-2.22 0.44-1.07 0.16-1.88 0.16-2.64 0-5.11-0.92-2.48-0.91-4.4-2.62-1.91-1.71-3.06-4.15t-1.15-5.49q0-3.2 1.1-6 1.1-2.79 3.09-4.87 1.99-2.07 4.75-3.27t6.08-1.2zm-0.3 6.5q-1 0-1.84 0.43-0.84 0.42-1.54 1.22-0.69 0.79-1.21 1.9-0.51 1.11-0.83 2.45 2.52-0.44 4.18-0.92 1.66-0.49 2.66-0.99t1.41-1q0.42-0.5 0.42-0.97 0-0.44-0.33-0.83t-0.82-0.68-1.06-0.45-1.04-0.16z" fill="#bb84e8" data-fill-palette-color="primary"/>
</svg>
</g>
</svg>
</svg>
</svg>
</svg>
</svg>
<rect width="395.52" height="110.6" fill="none" visibility="hidden"/>
</g>
</svg>
</g>
</svg>
